<?xml version="1.0" encoding="UTF-8" standalone="no"?><svg xmlns="http://www.w3.org/2000/svg" xmlns:xlink="http://www.w3.org/1999/xlink" contentScriptType="application/ecmascript" contentStyleType="text/css" height="261px" preserveAspectRatio="none" style="width:1008px;height:261px;background:#FFFFFF;" version="1.1" viewBox="0 0 1008 261" width="1008px" zoomAndPan="magnify"><defs/><g><rect fill="#FFFFFF" height="101.4844" rx="5" ry="5" style="stroke:#FFFFFF;stroke-width:1.5;" width="395" x="10" y="10"/><text fill="#000000" font-family="sans-serif" font-size="14" font-weight="bold" lengthAdjust="spacing" textLength="37" x="15" y="24.9951">date</text><text fill="#000000" font-family="sans-serif" font-size="14" lengthAdjust="spacing" textLength="202" x="142" y="24.9951">2022-04-12T10:45:00+02:00</text><line style="stroke:#000000;stroke-width:1.0;" x1="137" x2="137" y1="10" y2="30.2969"/><line style="stroke:#000000;stroke-width:1.0;" x1="10" x2="405" y1="30.2969" y2="30.2969"/><text fill="#000000" font-family="sans-serif" font-size="14" font-weight="bold" lengthAdjust="spacing" textLength="117" x="15" y="45.292">invitationSent</text><text fill="#000000" font-family="sans-serif" font-size="14" lengthAdjust="spacing" textLength="159" x="142" y="45.292">2022-04-02T14:54:12Z</text><line style="stroke:#000000;stroke-width:1.0;" x1="137" x2="137" y1="30.2969" y2="50.5938"/><line style="stroke:#000000;stroke-width:1.0;" x1="10" x2="405" y1="50.5938" y2="50.5938"/><text fill="#000000" font-family="sans-serif" font-size="14" font-weight="bold" lengthAdjust="spacing" textLength="35" x="15" y="65.5889">title</text><text fill="#000000" font-family="sans-serif" font-size="14" lengthAdjust="spacing" textLength="258" x="142" y="65.5889">Meeting: Konzeption des Frontends</text><line style="stroke:#000000;stroke-width:1.0;" x1="137" x2="137" y1="50.5938" y2="70.8906"/><line style="stroke:#000000;stroke-width:1.0;" x1="10" x2="405" y1="70.8906" y2="70.8906"/><text fill="#000000" font-family="sans-serif" font-size="14" font-weight="bold" lengthAdjust="spacing" textLength="67" x="15" y="85.8857">location</text><text fill="#000000" font-family="sans-serif" font-size="14" lengthAdjust="spacing" textLength="0" x="154" y="85.8857"/><line style="stroke:#000000;stroke-width:1.0;" x1="137" x2="137" y1="70.8906" y2="91.1875"/><line style="stroke:#000000;stroke-width:1.0;" x1="10" x2="405" y1="91.1875" y2="91.1875"/><text fill="#000000" font-family="sans-serif" font-size="14" font-weight="bold" lengthAdjust="spacing" textLength="82" x="15" y="106.1826">attendees</text><text fill="#000000" font-family="sans-serif" font-size="14" lengthAdjust="spacing" textLength="0" x="154" y="106.1826"/><line style="stroke:#000000;stroke-width:1.0;" x1="137" x2="137" y1="91.1875" y2="111.4844"/><rect fill="none" height="101.4844" rx="5" ry="5" style="stroke:#000000;stroke-width:1.5;" width="395" x="10" y="10"/><rect fill="#FFFFFF" height="60.8906" rx="5" ry="5" style="stroke:#FFFFFF;stroke-width:1.5;" width="192" x="442" y="21"/><text fill="#000000" font-family="sans-serif" font-size="14" font-weight="bold" lengthAdjust="spacing" textLength="50" x="447" y="35.9951">street</text><text fill="#000000" font-family="sans-serif" font-size="14" lengthAdjust="spacing" textLength="122" x="507" y="35.9951">Spengergasse 20</text><line style="stroke:#000000;stroke-width:1.0;" x1="502" x2="502" y1="21" y2="41.2969"/><line style="stroke:#000000;stroke-width:1.0;" x1="442" x2="634" y1="41.2969" y2="41.2969"/><text fill="#000000" font-family="sans-serif" font-size="14" font-weight="bold" lengthAdjust="spacing" textLength="24" x="447" y="56.292">zip</text><text fill="#000000" font-family="sans-serif" font-size="14" lengthAdjust="spacing" textLength="36" x="507" y="56.292">1050</text><line style="stroke:#000000;stroke-width:1.0;" x1="502" x2="502" y1="41.2969" y2="61.5938"/><line style="stroke:#000000;stroke-width:1.0;" x1="442" x2="634" y1="61.5938" y2="61.5938"/><text fill="#000000" font-family="sans-serif" font-size="14" font-weight="bold" lengthAdjust="spacing" textLength="31" x="447" y="76.5889">city</text><text fill="#000000" font-family="sans-serif" font-size="14" lengthAdjust="spacing" textLength="36" x="507" y="76.5889">Wien</text><line style="stroke:#000000;stroke-width:1.0;" x1="502" x2="502" y1="61.5938" y2="81.8906"/><rect fill="none" height="60.8906" rx="5" ry="5" style="stroke:#000000;stroke-width:1.5;" width="192" x="442" y="21"/><rect fill="#FFFFFF" height="60.8906" rx="5" ry="5" style="stroke:#FFFFFF;stroke-width:1.5;" width="22" x="526" y="100"/><text fill="#000000" font-family="sans-serif" font-size="14" lengthAdjust="spacing" textLength="0" x="543" y="114.9951"/><line style="stroke:#000000;stroke-width:1.0;" x1="526" x2="548" y1="120.2969" y2="120.2969"/><text fill="#000000" font-family="sans-serif" font-size="14" lengthAdjust="spacing" textLength="0" x="543" y="135.292"/><line style="stroke:#000000;stroke-width:1.0;" x1="526" x2="548" y1="140.5938" y2="140.5938"/><text fill="#000000" font-family="sans-serif" font-size="14" lengthAdjust="spacing" textLength="0" x="543" y="155.5889"/><rect fill="none" height="60.8906" rx="5" ry="5" style="stroke:#000000;stroke-width:1.5;" width="22" x="526" y="100"/><rect fill="#FFFFFF" height="81.1875" rx="5" ry="5" style="stroke:#FFFFFF;stroke-width:1.5;" width="323" x="672" y="10"/><text fill="#000000" font-family="sans-serif" font-size="14" font-weight="bold" lengthAdjust="spacing" textLength="80" x="677" y="24.9951">firstname</text><text fill="#000000" font-family="sans-serif" font-size="14" lengthAdjust="spacing" textLength="51" x="831" y="24.9951">Cyrillus</text><line style="stroke:#000000;stroke-width:1.0;" x1="826" x2="826" y1="10" y2="30.2969"/><line style="stroke:#000000;stroke-width:1.0;" x1="672" x2="995" y1="30.2969" y2="30.2969"/><text fill="#000000" font-family="sans-serif" font-size="14" font-weight="bold" lengthAdjust="spacing" textLength="76" x="677" y="45.292">lastname</text><text fill="#000000" font-family="sans-serif" font-size="14" lengthAdjust="spacing" textLength="49" x="831" y="45.292">Landre</text><line style="stroke:#000000;stroke-width:1.0;" x1="826" x2="826" y1="30.2969" y2="50.5938"/><line style="stroke:#000000;stroke-width:1.0;" x1="672" x2="995" y1="50.5938" y2="50.5938"/><text fill="#000000" font-family="sans-serif" font-size="14" font-weight="bold" lengthAdjust="spacing" textLength="82" x="677" y="65.5889">confirmed</text><text fill="#000000" font-family="sans-serif" font-size="14" lengthAdjust="spacing" textLength="47" x="831" y="65.5889">☑ true</text><line style="stroke:#000000;stroke-width:1.0;" x1="826" x2="826" y1="50.5938" y2="70.8906"/><line style="stroke:#000000;stroke-width:1.0;" x1="672" x2="995" y1="70.8906" y2="70.8906"/><text fill="#000000" font-family="sans-serif" font-size="14" font-weight="bold" lengthAdjust="spacing" textLength="144" x="677" y="85.8857">confirmationDate</text><text fill="#000000" font-family="sans-serif" font-size="14" lengthAdjust="spacing" textLength="159" x="831" y="85.8857">2022-04-02T18:12:43Z</text><line style="stroke:#000000;stroke-width:1.0;" x1="826" x2="826" y1="70.8906" y2="91.1875"/><rect fill="none" height="81.1875" rx="5" ry="5" style="stroke:#000000;stroke-width:1.5;" width="323" x="672" y="10"/><rect fill="#FFFFFF" height="40.5938" rx="5" ry="5" style="stroke:#FFFFFF;stroke-width:1.5;" width="159" x="754" y="109"/><text fill="#000000" font-family="sans-serif" font-size="14" font-weight="bold" lengthAdjust="spacing" textLength="80" x="759" y="123.9951">firstname</text><text fill="#000000" font-family="sans-serif" font-size="14" lengthAdjust="spacing" textLength="35" x="849" y="123.9951">Ilario</text><line style="stroke:#000000;stroke-width:1.0;" x1="844" x2="844" y1="109" y2="129.2969"/><line style="stroke:#000000;stroke-width:1.0;" x1="754" x2="913" y1="129.2969" y2="129.2969"/><text fill="#000000" font-family="sans-serif" font-size="14" font-weight="bold" lengthAdjust="spacing" textLength="76" x="759" y="144.292">lastname</text><text fill="#000000" font-family="sans-serif" font-size="14" lengthAdjust="spacing" textLength="59" x="849" y="144.292">Semken</text><line style="stroke:#000000;stroke-width:1.0;" x1="844" x2="844" y1="129.2969" y2="149.5938"/><rect fill="none" height="40.5938" rx="5" ry="5" style="stroke:#000000;stroke-width:1.5;" width="159" x="754" y="109"/><rect fill="#FFFFFF" height="81.1875" rx="5" ry="5" style="stroke:#FFFFFF;stroke-width:1.5;" width="325" x="671" y="168"/><text fill="#000000" font-family="sans-serif" font-size="14" font-weight="bold" lengthAdjust="spacing" textLength="80" x="676" y="182.9951">firstname</text><text fill="#000000" font-family="sans-serif" font-size="14" lengthAdjust="spacing" textLength="41" x="830" y="182.9951">Geoff</text><line style="stroke:#000000;stroke-width:1.0;" x1="825" x2="825" y1="168" y2="188.2969"/><line style="stroke:#000000;stroke-width:1.0;" x1="671" x2="996" y1="188.2969" y2="188.2969"/><text fill="#000000" font-family="sans-serif" font-size="14" font-weight="bold" lengthAdjust="spacing" textLength="76" x="676" y="203.292">lastname</text><text fill="#000000" font-family="sans-serif" font-size="14" lengthAdjust="spacing" textLength="65" x="830" y="203.292">Georgiev</text><line style="stroke:#000000;stroke-width:1.0;" x1="825" x2="825" y1="188.2969" y2="208.5938"/><line style="stroke:#000000;stroke-width:1.0;" x1="671" x2="996" y1="208.5938" y2="208.5938"/><text fill="#000000" font-family="sans-serif" font-size="14" font-weight="bold" lengthAdjust="spacing" textLength="82" x="676" y="223.5889">confirmed</text><text fill="#000000" font-family="sans-serif" font-size="14" lengthAdjust="spacing" textLength="51" x="830" y="223.5889">☐ false</text><line style="stroke:#000000;stroke-width:1.0;" x1="825" x2="825" y1="208.5938" y2="228.8906"/><line style="stroke:#000000;stroke-width:1.0;" x1="671" x2="996" y1="228.8906" y2="228.8906"/><text fill="#000000" font-family="sans-serif" font-size="14" font-weight="bold" lengthAdjust="spacing" textLength="144" x="676" y="243.8857">confirmationDate</text><text fill="#000000" font-family="sans-serif" font-size="14" lengthAdjust="spacing" textLength="161" x="830" y="243.8857">2022-04-04T07:49:03Z</text><line style="stroke:#000000;stroke-width:1.0;" x1="825" x2="825" y1="228.8906" y2="249.1875"/><rect fill="none" height="81.1875" rx="5" ry="5" style="stroke:#000000;stroke-width:1.5;" width="325" x="671" y="168"/><path d="M393,80.5 L406,80.5 C415.3158,80.5 424.9175,79.7974 434.4904,78.6109 " fill="none" style="stroke:#000000;stroke-width:1.0;stroke-dasharray:3.0,3.0;"/><path d="M434.9109,81.6769 L436.7899,78.2955 L434.07,75.5448 L442.1555,77.5597 L434.9109,81.6769 " fill="#000000" style="stroke:#000000;stroke-width:1.0;"/><ellipse cx="393" cy="80.5" fill="#000000" rx="3" ry="3" style="stroke:#000000;stroke-width:1.0;"/><path d="M538.5,109.5 L551.5,109.5 C596.4606,109.5 644.6179,102.2012 688.1612,92.7379 " fill="none" style="stroke:#000000;stroke-width:1.0;stroke-dasharray:3.0,3.0;"/><path d="M688.8264,95.7416 L690.4139,92.2389 L687.4959,89.7341 L695.6704,91.0747 L688.8264,95.7416 " fill="#000000" style="stroke:#000000;stroke-width:1.0;"/><ellipse cx="538.5" cy="109.5" fill="#000000" rx="3" ry="3" style="stroke:#000000;stroke-width:1.0;"/><path d="M538.5,129.5 L551.5,129.5 C616.9633,129.5 690.9898,129.5 746.6957,129.5 " fill="none" style="stroke:#000000;stroke-width:1.0;stroke-dasharray:3.0,3.0;"/><path d="M746.6957,132.5944 L749.0165,129.5 L746.6957,126.4056 L754.4316,129.5 L746.6957,132.5944 " fill="#000000" style="stroke:#000000;stroke-width:1.0;"/><ellipse cx="538.5" cy="129.5" fill="#000000" rx="3" ry="3" style="stroke:#000000;stroke-width:1.0;"/><path d="M538.5,150.5 L551.5,150.5 C595.4854,150.5 642.5561,157.377 685.3721,166.3949 " fill="none" style="stroke:#000000;stroke-width:1.0;stroke-dasharray:3.0,3.0;"/><path d="M684.7378,169.3496 L687.5881,166.8706 L686.0064,163.4402 L692.7588,167.9806 L684.7378,169.3496 " fill="#000000" style="stroke:#000000;stroke-width:1.0;"/><ellipse cx="538.5" cy="150.5" fill="#000000" rx="3" ry="3" style="stroke:#000000;stroke-width:1.0;"/><path d="M393,100.5 L406,100.5 C447.3812,100.5 494.2939,114.7957 519.382,123.6503 " fill="none" style="stroke:#000000;stroke-width:1.0;stroke-dasharray:3.0,3.0;"/><path d="M518.3615,126.4723 L521.4985,124.4157 L520.4026,120.8283 L526.437,126.2017 L518.3615,126.4723 " fill="#000000" style="stroke:#000000;stroke-width:1.0;"/><ellipse cx="393" cy="100.5" fill="#000000" rx="3" ry="3" style="stroke:#000000;stroke-width:1.0;"/><!--MD5=[47e52c5d9f808e0045241a2aff23b67f]
@startjson
{
   "date":"2022-04-12T10:45:00+02:00",
   "invitationSent":"2022-04-02T14:54:12Z",
   "title":"Meeting: Konzeption des Frontends",
   "location":{
      "street":"Spengergasse 20",
      "zip":1050,
      "city":"Wien"
   },
   "attendees":[
      {
         "firstname":"Cyrillus",
         "lastname":"Landre",
         "confirmed":true,
         "confirmationDate":"2022-04-02T18:12:43Z"
      },
      {
         "firstname":"Ilario",
         "lastname":"Semken"
      },
      {
         "firstname":"Geoff",
         "lastname":"Georgiev",
         "confirmed":false,
         "confirmationDate":"2022-04-04T07:49:03Z"
      }
   ]
}
@endjson

PlantUML version 1.2021.17beta4(Unknown compile time)
(GPL source distribution)
Java Runtime: Java(TM) SE Runtime Environment
JVM: Java HotSpot(TM) 64-Bit Server VM
Default Encoding: UTF-8
Language: en
Country: US
--></g></svg>