<?xml version="1.0" encoding="UTF-8" standalone="no"?><svg xmlns="http://www.w3.org/2000/svg" xmlns:xlink="http://www.w3.org/1999/xlink" contentScriptType="application/ecmascript" contentStyleType="text/css" height="578px" preserveAspectRatio="none" style="width:466px;height:578px;background:#FFFFFF;" version="1.1" viewBox="0 0 466 578" width="466px" zoomAndPan="magnify"><defs><filter height="300%" id="f1aiyl3b4tfww0" width="300%" x="-1" y="-1"><feGaussianBlur result="blurOut" stdDeviation="2.0"/><feColorMatrix in="blurOut" result="blurOut2" type="matrix" values="0 0 0 0 0 0 0 0 0 0 0 0 0 0 0 0 0 0 .4 0"/><feOffset dx="4.0" dy="4.0" in="blurOut2" result="blurOut3"/><feBlend in="SourceGraphic" in2="blurOut3" mode="normal"/></filter></defs><g><!--MD5=[425b854e9cd582caa471d30c673487a5]
class JsonRoot--><rect codeLine="2" fill="#FEFECE" filter="url(#f1aiyl3b4tfww0)" height="91.2188" id="JsonRoot" style="stroke:#A80036;stroke-width:1.5;" width="242" x="39.6355" y="7"/><ellipse cx="129.8855" cy="23" fill="#ADD1B2" rx="11" ry="11" style="stroke:#A80036;stroke-width:1.0;"/><path d="M132.2293,18.6719 C131.2918,18.2344 130.698,18.0938 129.823,18.0938 C127.198,18.0938 125.198,20.1719 125.198,22.8906 L125.198,24.0156 C125.198,26.5938 127.3074,28.4844 130.198,28.4844 C131.4168,28.4844 132.573,28.1875 133.323,27.6406 C133.9011,27.2344 134.2293,26.7813 134.2293,26.3906 C134.2293,25.9375 133.8386,25.5469 133.3699,25.5469 C133.1511,25.5469 132.948,25.625 132.7605,25.8125 C132.3074,26.2969 132.3074,26.2969 132.1199,26.3906 C131.698,26.6563 131.0105,26.7813 130.2449,26.7813 C128.198,26.7813 126.9011,25.6875 126.9011,23.9844 L126.9011,22.8906 C126.9011,21.1094 128.1511,19.7969 129.8855,19.7969 C130.4636,19.7969 131.073,19.9531 131.5418,20.2031 C132.0261,20.4844 132.198,20.7031 132.2918,21.1094 C132.3543,21.5156 132.3855,21.6406 132.5261,21.7656 C132.6668,21.9063 132.9011,22.0156 133.1199,22.0156 C133.3855,22.0156 133.6511,21.875 133.823,21.6563 C133.9324,21.5 133.9636,21.3125 133.9636,20.8906 L133.9636,19.4688 C133.9636,19.0313 133.948,18.9063 133.8543,18.75 C133.698,18.4844 133.4168,18.3438 133.1199,18.3438 C132.823,18.3438 132.6199,18.4375 132.4011,18.75 L132.2293,18.6719 Z " fill="#000000"/><text fill="#000000" font-family="sans-serif" font-size="12" lengthAdjust="spacing" textLength="53" x="150.3855" y="27.1543">JsonRoot</text><line style="stroke:#A80036;stroke-width:1.5;" x1="40.6355" x2="280.6355" y1="39" y2="39"/><ellipse cx="50.6355" cy="50" rx="3" ry="3" style="stroke:#038048;stroke-width:1.0;fill:none;"/><text fill="#000000" font-family="sans-serif" font-size="11" lengthAdjust="spacing" textLength="85" x="59.6355" y="53.2104">stores : Store[]</text><ellipse cx="50.6355" cy="62.8047" rx="3" ry="3" style="stroke:#038048;stroke-width:1.0;fill:none;"/><text fill="#000000" font-family="sans-serif" font-size="11" lengthAdjust="spacing" textLength="216" x="59.6355" y="66.0151">productCategories : ProductCategory[]</text><ellipse cx="50.6355" cy="75.6094" rx="3" ry="3" style="stroke:#038048;stroke-width:1.0;fill:none;"/><text fill="#000000" font-family="sans-serif" font-size="11" lengthAdjust="spacing" textLength="108" x="59.6355" y="78.8198">products : Product[]</text><ellipse cx="50.6355" cy="88.4141" rx="3" ry="3" style="stroke:#038048;stroke-width:1.0;fill:none;"/><text fill="#000000" font-family="sans-serif" font-size="11" lengthAdjust="spacing" textLength="81" x="59.6355" y="91.6245">offers : Offer[]</text><!--MD5=[b4d3d50c0abf08df45181fececb9f04d]
class Store--><rect codeLine="13" fill="#FEFECE" filter="url(#f1aiyl3b4tfww0)" height="104.0234" id="Store" style="stroke:#A80036;stroke-width:1.5;" width="115" x="78.1355" y="328.5"/><ellipse cx="115.6355" cy="344.5" fill="#ADD1B2" rx="11" ry="11" style="stroke:#A80036;stroke-width:1.0;"/><path d="M117.9793,340.1719 C117.0418,339.7344 116.448,339.5938 115.573,339.5938 C112.948,339.5938 110.948,341.6719 110.948,344.3906 L110.948,345.5156 C110.948,348.0938 113.0574,349.9844 115.948,349.9844 C117.1668,349.9844 118.323,349.6875 119.073,349.1406 C119.6511,348.7344 119.9793,348.2813 119.9793,347.8906 C119.9793,347.4375 119.5886,347.0469 119.1199,347.0469 C118.9011,347.0469 118.698,347.125 118.5105,347.3125 C118.0574,347.7969 118.0574,347.7969 117.8699,347.8906 C117.448,348.1563 116.7605,348.2813 115.9949,348.2813 C113.948,348.2813 112.6511,347.1875 112.6511,345.4844 L112.6511,344.3906 C112.6511,342.6094 113.9011,341.2969 115.6355,341.2969 C116.2136,341.2969 116.823,341.4531 117.2918,341.7031 C117.7761,341.9844 117.948,342.2031 118.0418,342.6094 C118.1043,343.0156 118.1355,343.1406 118.2761,343.2656 C118.4168,343.4063 118.6511,343.5156 118.8699,343.5156 C119.1355,343.5156 119.4011,343.375 119.573,343.1563 C119.6824,343 119.7136,342.8125 119.7136,342.3906 L119.7136,340.9688 C119.7136,340.5313 119.698,340.4063 119.6043,340.25 C119.448,339.9844 119.1668,339.8438 118.8699,339.8438 C118.573,339.8438 118.3699,339.9375 118.1511,340.25 L117.9793,340.1719 Z " fill="#000000"/><text fill="#000000" font-family="sans-serif" font-size="12" lengthAdjust="spacing" textLength="33" x="134.6355" y="348.6543">Store</text><line style="stroke:#A80036;stroke-width:1.5;" x1="79.1355" x2="192.1355" y1="360.5" y2="360.5"/><ellipse cx="89.1355" cy="371.5" rx="3" ry="3" style="stroke:#038048;stroke-width:1.0;fill:none;"/><text fill="#000000" font-family="sans-serif" font-size="11" lengthAdjust="spacing" textLength="68" x="98.1355" y="374.7104">guid : String</text><ellipse cx="89.1355" cy="384.3047" rx="3" ry="3" style="stroke:#038048;stroke-width:1.0;fill:none;"/><text fill="#000000" font-family="sans-serif" font-size="11" lengthAdjust="spacing" textLength="77" x="98.1355" y="387.5151">name : String</text><ellipse cx="89.1355" cy="397.1094" rx="3" ry="3" style="stroke:#038048;stroke-width:1.0;fill:none;"/><text fill="#000000" font-family="sans-serif" font-size="11" lengthAdjust="spacing" textLength="89" x="98.1355" y="400.3198">address : String</text><ellipse cx="89.1355" cy="409.9141" rx="3" ry="3" style="stroke:#038048;stroke-width:1.0;fill:none;"/><text fill="#000000" font-family="sans-serif" font-size="11" lengthAdjust="spacing" textLength="61" x="98.1355" y="413.1245">zip : String</text><ellipse cx="89.1355" cy="422.7188" rx="3" ry="3" style="stroke:#038048;stroke-width:1.0;fill:none;"/><text fill="#000000" font-family="sans-serif" font-size="11" lengthAdjust="spacing" textLength="60" x="98.1355" y="425.9292">city: String</text><!--MD5=[a1db4bf20df23ac2cd9366d22a9e2860]
class ProductCategory--><rect codeLine="21" fill="#FEFECE" filter="url(#f1aiyl3b4tfww0)" height="65.6094" id="ProductCategory" style="stroke:#A80036;stroke-width:1.5;" width="132" x="116.6355" y="499"/><ellipse cx="131.6355" cy="515" fill="#ADD1B2" rx="11" ry="11" style="stroke:#A80036;stroke-width:1.0;"/><path d="M133.9793,510.6719 C133.0418,510.2344 132.448,510.0938 131.573,510.0938 C128.948,510.0938 126.948,512.1719 126.948,514.8906 L126.948,516.0156 C126.948,518.5938 129.0574,520.4844 131.948,520.4844 C133.1668,520.4844 134.323,520.1875 135.073,519.6406 C135.6511,519.2344 135.9793,518.7813 135.9793,518.3906 C135.9793,517.9375 135.5886,517.5469 135.1199,517.5469 C134.9011,517.5469 134.698,517.625 134.5105,517.8125 C134.0574,518.2969 134.0574,518.2969 133.8699,518.3906 C133.448,518.6563 132.7605,518.7813 131.9949,518.7813 C129.948,518.7813 128.6511,517.6875 128.6511,515.9844 L128.6511,514.8906 C128.6511,513.1094 129.9011,511.7969 131.6355,511.7969 C132.2136,511.7969 132.823,511.9531 133.2918,512.2031 C133.7761,512.4844 133.948,512.7031 134.0418,513.1094 C134.1043,513.5156 134.1355,513.6406 134.2761,513.7656 C134.4168,513.9063 134.6511,514.0156 134.8699,514.0156 C135.1355,514.0156 135.4011,513.875 135.573,513.6563 C135.6824,513.5 135.7136,513.3125 135.7136,512.8906 L135.7136,511.4688 C135.7136,511.0313 135.698,510.9063 135.6043,510.75 C135.448,510.4844 135.1668,510.3438 134.8699,510.3438 C134.573,510.3438 134.3699,510.4375 134.1511,510.75 L133.9793,510.6719 Z " fill="#000000"/><text fill="#000000" font-family="sans-serif" font-size="12" lengthAdjust="spacing" textLength="100" x="145.6355" y="519.1543">ProductCategory</text><line style="stroke:#A80036;stroke-width:1.5;" x1="117.6355" x2="247.6355" y1="531" y2="531"/><ellipse cx="127.6355" cy="542" rx="3" ry="3" style="stroke:#038048;stroke-width:1.0;fill:none;"/><text fill="#000000" font-family="sans-serif" font-size="11" lengthAdjust="spacing" textLength="68" x="136.6355" y="545.2104">guid : String</text><ellipse cx="127.6355" cy="554.8047" rx="3" ry="3" style="stroke:#038048;stroke-width:1.0;fill:none;"/><text fill="#000000" font-family="sans-serif" font-size="11" lengthAdjust="spacing" textLength="77" x="136.6355" y="558.0151">name : String</text><!--MD5=[72136138052d025cffdce3c22fbd185f]
class Product--><rect codeLine="26" fill="#FEFECE" filter="url(#f1aiyl3b4tfww0)" height="116.8281" id="Product" style="stroke:#A80036;stroke-width:1.5;" width="224" x="228.6355" y="322"/><ellipse cx="313.8855" cy="338" fill="#ADD1B2" rx="11" ry="11" style="stroke:#A80036;stroke-width:1.0;"/><path d="M316.2293,333.6719 C315.2918,333.2344 314.698,333.0938 313.823,333.0938 C311.198,333.0938 309.198,335.1719 309.198,337.8906 L309.198,339.0156 C309.198,341.5938 311.3074,343.4844 314.198,343.4844 C315.4168,343.4844 316.573,343.1875 317.323,342.6406 C317.9011,342.2344 318.2293,341.7813 318.2293,341.3906 C318.2293,340.9375 317.8386,340.5469 317.3699,340.5469 C317.1511,340.5469 316.948,340.625 316.7605,340.8125 C316.3074,341.2969 316.3074,341.2969 316.1199,341.3906 C315.698,341.6563 315.0105,341.7813 314.2449,341.7813 C312.198,341.7813 310.9011,340.6875 310.9011,338.9844 L310.9011,337.8906 C310.9011,336.1094 312.1511,334.7969 313.8855,334.7969 C314.4636,334.7969 315.073,334.9531 315.5418,335.2031 C316.0261,335.4844 316.198,335.7031 316.2918,336.1094 C316.3543,336.5156 316.3855,336.6406 316.5261,336.7656 C316.6668,336.9063 316.9011,337.0156 317.1199,337.0156 C317.3855,337.0156 317.6511,336.875 317.823,336.6563 C317.9324,336.5 317.9636,336.3125 317.9636,335.8906 L317.9636,334.4688 C317.9636,334.0313 317.948,333.9063 317.8543,333.75 C317.698,333.4844 317.4168,333.3438 317.1199,333.3438 C316.823,333.3438 316.6199,333.4375 316.4011,333.75 L316.2293,333.6719 Z " fill="#000000"/><text fill="#000000" font-family="sans-serif" font-size="12" lengthAdjust="spacing" textLength="45" x="334.3855" y="342.1543">Product</text><line style="stroke:#A80036;stroke-width:1.5;" x1="229.6355" x2="451.6355" y1="354" y2="354"/><ellipse cx="239.6355" cy="365" rx="3" ry="3" style="stroke:#038048;stroke-width:1.0;fill:none;"/><text fill="#000000" font-family="sans-serif" font-size="11" lengthAdjust="spacing" textLength="68" x="248.6355" y="368.2104">guid : String</text><ellipse cx="239.6355" cy="377.8047" rx="3" ry="3" style="stroke:#038048;stroke-width:1.0;fill:none;"/><text fill="#000000" font-family="sans-serif" font-size="11" lengthAdjust="spacing" textLength="74" x="248.6355" y="381.0151">ean : Integer</text><ellipse cx="239.6355" cy="390.6094" rx="3" ry="3" style="stroke:#038048;stroke-width:1.0;fill:none;"/><text fill="#000000" font-family="sans-serif" font-size="11" lengthAdjust="spacing" textLength="77" x="248.6355" y="393.8198">name : String</text><ellipse cx="239.6355" cy="403.4141" rx="3" ry="3" style="stroke:#038048;stroke-width:1.0;fill:none;"/><text fill="#000000" font-family="sans-serif" font-size="11" lengthAdjust="spacing" textLength="102" x="248.6355" y="406.6245">description: String</text><ellipse cx="239.6355" cy="416.2188" rx="3" ry="3" style="stroke:#038048;stroke-width:1.0;fill:none;"/><text fill="#000000" font-family="sans-serif" font-size="11" lengthAdjust="spacing" textLength="104" x="248.6355" y="419.4292">added : DateTime</text><ellipse cx="239.6355" cy="429.0234" rx="3" ry="3" style="stroke:#038048;stroke-width:1.0;fill:none;"/><text fill="#000000" font-family="sans-serif" font-size="11" lengthAdjust="spacing" textLength="198" x="248.6355" y="432.2339">productCategory : ProductCategory</text><!--MD5=[af8ed831b3fe9dbd380fec6c597723ab]
class Offer--><rect codeLine="36" fill="#FEFECE" filter="url(#f1aiyl3b4tfww0)" height="104.0234" id="Offer" style="stroke:#A80036;stroke-width:1.5;" width="155" x="149.1355" y="158"/><ellipse cx="206.8855" cy="174" fill="#ADD1B2" rx="11" ry="11" style="stroke:#A80036;stroke-width:1.0;"/><path d="M209.2293,169.6719 C208.2918,169.2344 207.698,169.0938 206.823,169.0938 C204.198,169.0938 202.198,171.1719 202.198,173.8906 L202.198,175.0156 C202.198,177.5938 204.3074,179.4844 207.198,179.4844 C208.4168,179.4844 209.573,179.1875 210.323,178.6406 C210.9011,178.2344 211.2293,177.7813 211.2293,177.3906 C211.2293,176.9375 210.8386,176.5469 210.3699,176.5469 C210.1511,176.5469 209.948,176.625 209.7605,176.8125 C209.3074,177.2969 209.3074,177.2969 209.1199,177.3906 C208.698,177.6563 208.0105,177.7813 207.2449,177.7813 C205.198,177.7813 203.9011,176.6875 203.9011,174.9844 L203.9011,173.8906 C203.9011,172.1094 205.1511,170.7969 206.8855,170.7969 C207.4636,170.7969 208.073,170.9531 208.5418,171.2031 C209.0261,171.4844 209.198,171.7031 209.2918,172.1094 C209.3543,172.5156 209.3855,172.6406 209.5261,172.7656 C209.6668,172.9063 209.9011,173.0156 210.1199,173.0156 C210.3855,173.0156 210.6511,172.875 210.823,172.6563 C210.9324,172.5 210.9636,172.3125 210.9636,171.8906 L210.9636,170.4688 C210.9636,170.0313 210.948,169.9063 210.8543,169.75 C210.698,169.4844 210.4168,169.3438 210.1199,169.3438 C209.823,169.3438 209.6199,169.4375 209.4011,169.75 L209.2293,169.6719 Z " fill="#000000"/><text fill="#000000" font-family="sans-serif" font-size="12" lengthAdjust="spacing" textLength="31" x="227.3855" y="178.1543">Offer</text><line style="stroke:#A80036;stroke-width:1.5;" x1="150.1355" x2="303.1355" y1="190" y2="190"/><ellipse cx="160.1355" cy="201" rx="3" ry="3" style="stroke:#038048;stroke-width:1.0;fill:none;"/><text fill="#000000" font-family="sans-serif" font-size="11" lengthAdjust="spacing" textLength="68" x="169.1355" y="204.2104">guid : String</text><ellipse cx="160.1355" cy="213.8047" rx="3" ry="3" style="stroke:#038048;stroke-width:1.0;fill:none;"/><text fill="#000000" font-family="sans-serif" font-size="11" lengthAdjust="spacing" textLength="90" x="169.1355" y="217.0151">product: Product</text><ellipse cx="160.1355" cy="226.6094" rx="3" ry="3" style="stroke:#038048;stroke-width:1.0;fill:none;"/><text fill="#000000" font-family="sans-serif" font-size="11" lengthAdjust="spacing" textLength="71" x="169.1355" y="229.8198">store : Store</text><ellipse cx="160.1355" cy="239.4141" rx="3" ry="3" style="stroke:#038048;stroke-width:1.0;fill:none;"/><text fill="#000000" font-family="sans-serif" font-size="11" lengthAdjust="spacing" textLength="84" x="169.1355" y="242.6245">price : Number</text><ellipse cx="160.1355" cy="252.2188" rx="3" ry="3" style="stroke:#038048;stroke-width:1.0;fill:none;"/><text fill="#000000" font-family="sans-serif" font-size="11" lengthAdjust="spacing" textLength="129" x="169.1355" y="255.4292">lastUpdate : DateTime</text><!--MD5=[155c837868dc659961c1a8294857c855]
link JsonRoot to Store--><path codeLine="8" d="M142.0437,109.7382 C142.0437,109.7382 133.738,142.561 131.6355,158 C124.4865,210.496 126.1892,270.629 129.2875,314.982 " fill="none" id="JsonRoot-Store" style="stroke:#A80036;stroke-width:1.0;"/><polygon fill="#A80036" points="130.2857,328.214,133.5969,318.9384,129.9093,323.2282,125.6196,319.5406,130.2857,328.214" style="stroke:#A80036;stroke-width:1.0;"/><line style="stroke:#A80036;stroke-width:1.0;" x1="129.9093" x2="129.3077" y1="323.2282" y2="315.2505"/><polygon fill="#FFFFFF" points="145.3615,98.206,139.8585,102.8662,142.0437,109.7382,147.5467,105.0781,145.3615,98.206" style="stroke:#A80036;stroke-width:1.0;"/><!--MD5=[7e3bbba5855fca69b3cb3e73b5726943]
link JsonRoot to ProductCategory--><path codeLine="9" d="M123.2411,108.2554 C123.2411,108.2554 6,329.371 60.6355,439 C71.1196,460.037 88.9608,477.5325 107.8106,491.418 " fill="none" id="JsonRoot-ProductCategory" style="stroke:#A80036;stroke-width:1.0;"/><polygon fill="#A80036" points="118.6605,498.9676,113.5576,490.5438,114.5563,496.1118,108.9883,497.1105,118.6605,498.9676" style="stroke:#A80036;stroke-width:1.0;"/><line style="stroke:#A80036;stroke-width:1.0;" x1="114.5563" x2="107.9896" y1="496.1118" y2="491.5425"/><polygon fill="#FFFFFF" points="129.618,98.09,123.0411,101.0471,123.2411,108.2554,129.818,105.2983,129.618,98.09" style="stroke:#A80036;stroke-width:1.0;"/><!--MD5=[e7adb2bd0f48eb9e25162ce0ae9b2fd6]
link JsonRoot to Product--><path codeLine="10" d="M269.7573,104.7758 C269.7573,104.7758 309.1395,137.169 321.6355,158 C348.5605,202.885 352.2905,262.373 349.8455,308.398 " fill="none" id="JsonRoot-Product" style="stroke:#A80036;stroke-width:1.0;"/><polygon fill="#A80036" points="348.9565,321.606,353.5518,312.8949,349.2922,316.6173,345.5698,312.3577,348.9565,321.606" style="stroke:#A80036;stroke-width:1.0;"/><line style="stroke:#A80036;stroke-width:1.0;" x1="349.2922" x2="349.829" y1="316.6173" y2="308.6355"/><polygon fill="#FFFFFF" points="259.8315,98.032,262.5465,104.7125,269.7573,104.7758,267.0423,98.0953,259.8315,98.032" style="stroke:#A80036;stroke-width:1.0;"/><!--MD5=[52aeeab6e0732d2158f15a6c2f7a8e14]
link JsonRoot to Offer--><path codeLine="11" d="M184.2379,109.1058 C184.2379,109.1058 194.8165,134.033 199.8125,145.803 " fill="none" id="JsonRoot-Offer" style="stroke:#A80036;stroke-width:1.0;"/><polygon fill="#A80036" points="204.9275,157.855,205.0928,148.0075,202.9738,153.2525,197.7288,151.1335,204.9275,157.855" style="stroke:#A80036;stroke-width:1.0;"/><line style="stroke:#A80036;stroke-width:1.0;" x1="202.9738" x2="199.848" y1="153.2525" y2="145.888"/><polygon fill="#FFFFFF" points="179.5485,98.06,178.2113,105.146,184.2379,109.1058,185.5751,102.0197,179.5485,98.06" style="stroke:#A80036;stroke-width:1.0;"/><!--MD5=[5c0c66984b48f13f6f1fd84ba8e61151]
link Product to ProductCategory--><path codeLine="34" d="M270.8311,447.5476 C270.8311,447.5476 239.7125,476.9939 226.1595,489.8178 " fill="none" id="Product-ProductCategory" style="stroke:#A80036;stroke-width:1.0;"/><polygon fill="#A80036" points="216.6325,498.8324,225.9189,495.5518,220.2642,495.3957,220.4202,489.741,216.6325,498.8324" style="stroke:#A80036;stroke-width:1.0;"/><line style="stroke:#A80036;stroke-width:1.0;" x1="220.2642" x2="226.075" y1="495.3957" y2="489.8975"/><polygon fill="#FFFFFF" points="279.5485,439.301,272.4409,440.5185,270.8311,447.5476,277.9387,446.3301,279.5485,439.301" style="stroke:#A80036;stroke-width:1.0;"/><!--MD5=[48899a5fad677940e75da7b5e010d5cb]
link Offer to Product--><path codeLine="43" d="M267.8735,271.9515 C267.8735,271.9515 285.7405,298.362 294.2655,310.962 " fill="none" id="Offer-Product" style="stroke:#A80036;stroke-width:1.0;"/><polygon fill="#A80036" points="301.6515,321.879,299.9206,312.1834,298.8494,317.738,293.2949,316.6668,301.6515,321.879" style="stroke:#A80036;stroke-width:1.0;"/><line style="stroke:#A80036;stroke-width:1.0;" x1="298.8494" x2="294.367" y1="317.738" y2="311.112"/><polygon fill="#FFFFFF" points="261.1485,262.013,261.1982,269.2239,267.8735,271.9515,267.8238,264.7406,261.1485,262.013" style="stroke:#A80036;stroke-width:1.0;"/><!--MD5=[70935dd098ed5da231aa315676372594]
link Offer to Store--><path codeLine="44" d="M193.3835,272.5717 C193.3835,272.5717 177.1265,302.673 169.5135,316.77 " fill="none" id="Offer-Store" style="stroke:#A80036;stroke-width:1.0;"/><polygon fill="#A80036" points="163.2485,328.37,171.0452,322.3524,165.6248,323.9708,164.0064,318.5503,163.2485,328.37" style="stroke:#A80036;stroke-width:1.0;"/><line style="stroke:#A80036;stroke-width:1.0;" x1="165.6248" x2="169.426" y1="323.9708" y2="316.9315"/><polygon fill="#FFFFFF" points="199.0855,262.013,192.7149,265.3917,193.3835,272.5717,199.7541,269.193,199.0855,262.013" style="stroke:#A80036;stroke-width:1.0;"/><!--MD5=[ac2413512e6517715b03ae0c781d59b2]
@startuml
hide empty methods
class JsonRoot {
    +stores : Store[]
    +productCategories : ProductCategory[]
    +products : Product[]
    +offers : Offer[]
}
JsonRoot o- -> Store
JsonRoot o- -> ProductCategory
JsonRoot o- -> Product
JsonRoot o- -> Offer

class Store {
    +guid : String
    +name : String
    +address : String
    +zip : String
    +city: String
}

class ProductCategory {
    +guid : String
    +name : String
}

class Product {
    +guid : String
    +ean : Integer
    +name : String
    +description: String
    +added : DateTime
    +productCategory : ProductCategory
}
Product o- -> ProductCategory

class Offer {
    +guid : String
    +product: Product
    +store : Store
    +price : Number
    +lastUpdate : DateTime
}
Offer o- -> Product
Offer o- -> Store
@enduml

PlantUML version 1.2021.17beta4(Unknown compile time)
(GPL source distribution)
Java Runtime: Java(TM) SE Runtime Environment
JVM: Java HotSpot(TM) 64-Bit Server VM
Default Encoding: UTF-8
Language: en
Country: US
--></g></svg>