<?xml version="1.0" encoding="UTF-8"?>
<svg id="Layer_1" data-name="Layer 1" xmlns="http://www.w3.org/2000/svg" viewBox="0 0 201.24 29.76">
  <defs>
    <style>
      .cls-1 {
        fill: #ed1944;
      }

      .cls-2 {
        fill: #231f20;
      }
    </style>
  </defs>
  <path class="cls-2" d="M5.37,29.76c-1.74,0-4.09-.78-5.15-2.33-.16-.23-.23-.46-.23-.66,0-.64,.59-1.17,1.19-1.17s.71,.32,1.05,.66c.8,.85,1.99,1.21,3.13,1.21,2.56,0,4-1.4,4-3C9.38,19.88,.11,21.67,.11,15.51c0-3.2,2.77-4.96,5.49-4.96,1.92,0,4.16,1.03,5.35,2.61,.18,.23,.25,.48,.25,.71,0,.62-.55,1.1-1.17,1.1-.55,0-.78-.32-1.12-.66-.87-.89-2.06-1.46-3.32-1.46-1.9,0-3.2,1.12-3.2,2.68,0,3.98,9.26,2.45,9.26,8.97,0,3.36-3.02,5.28-6.29,5.28"/>
  <path class="cls-2" d="M20.54,20.77c2.13,0,3.87-1.72,3.87-3.84s-1.74-3.87-3.87-3.87h-2.93v7.71h2.93Zm0,2.29h-2.93v5.33c0,.76-.57,1.14-1.14,1.14s-1.14-.39-1.14-1.14V11.92c0-.62,.53-1.14,1.14-1.14h4.07c3.38,0,6.15,2.74,6.15,6.13s-2.77,6.15-6.15,6.15"/>
  <path class="cls-2" d="M39.61,29.53h-8.58c-.62,0-1.14-.53-1.14-1.14V11.92c0-.62,.53-1.14,1.14-1.14h8.58c.76,0,1.14,.57,1.14,1.14s-.39,1.14-1.14,1.14h-7.43v5.53h6.75c.75,0,1.14,.57,1.14,1.14s-.39,1.14-1.14,1.14h-6.75v6.36h7.43c.76,0,1.14,.57,1.14,1.14s-.39,1.14-1.14,1.14"/>
  <path class="cls-2" d="M55.42,29.72c-.39,0-.78-.23-1.1-.73l-7.84-12.97v12.37c0,.75-.57,1.14-1.14,1.14s-1.14-.39-1.14-1.14V11.92c0-.85,.48-1.33,1.03-1.33,.39,0,.78,.23,1.1,.73l7.84,12.97V11.92c0-.76,.57-1.14,1.14-1.14s1.14,.39,1.14,1.14V28.39c0,.85-.48,1.33-1.03,1.33"/>
  <path class="cls-2" d="M66.47,29.76c-3.52,0-6.36-2.84-6.36-6.36v-6.49c0-3.52,2.84-6.36,6.36-6.36,1.83,0,4.23,.82,5.42,2.36,.18,.23,.27,.48,.27,.71,0,.64-.57,1.17-1.19,1.17-.3,0-.62-.14-.87-.46l-.18-.18c-.91-.87-2.2-1.3-3.45-1.3-2.24,0-4.07,1.83-4.07,4.07v6.49c0,2.24,1.83,4.07,4.07,4.07s4.07-1.83,4.07-4.07v-2.01h-3.89c-.75,0-1.14-.57-1.14-1.14s.39-1.14,1.14-1.14h5.03c.62,0,1.14,.53,1.14,1.14v3.16c0,3.52-2.84,6.36-6.36,6.36"/>
  <path class="cls-2" d="M86.2,29.53h-8.58c-.62,0-1.14-.53-1.14-1.14V11.92c0-.62,.53-1.14,1.14-1.14h8.58c.75,0,1.14,.57,1.14,1.14s-.39,1.14-1.14,1.14h-7.43v5.53h6.75c.75,0,1.14,.57,1.14,1.14s-.39,1.14-1.14,1.14h-6.75v6.36h7.43c.75,0,1.14,.57,1.14,1.14s-.39,1.14-1.14,1.14"/>
  <path class="cls-2" d="M95.99,20.77c2.08,0,3.86-1.69,3.86-3.84s-1.74-3.86-3.86-3.86h-2.93v7.71h2.93Zm5.01,8.78c-.34,0-.71-.16-.94-.55l-3.77-5.95h-3.23v5.33c0,.75-.57,1.14-1.14,1.14s-1.14-.39-1.14-1.14V11.92c0-.62,.53-1.14,1.14-1.14h4.07c3.38,0,6.15,2.74,6.15,6.13,0,2.47-1.44,4.57-3.52,5.56l3.36,5.31c.14,.23,.21,.43,.21,.64,0,.64-.59,1.14-1.19,1.14"/>
  <path class="cls-2" d="M111.52,29.76c-3.52,0-6.36-2.84-6.36-6.36v-6.49c0-3.52,2.84-6.36,6.36-6.36,1.83,0,4.23,.82,5.42,2.36,.18,.23,.27,.48,.27,.71,0,.64-.57,1.17-1.19,1.17-.3,0-.62-.14-.87-.46l-.18-.18c-.91-.87-2.2-1.3-3.45-1.3-2.24,0-4.07,1.83-4.07,4.07v6.49c0,2.24,1.83,4.07,4.07,4.07s4.07-1.83,4.07-4.07v-2.01h-3.89c-.75,0-1.14-.57-1.14-1.14s.39-1.14,1.14-1.14h5.03c.62,0,1.14,.53,1.14,1.14v3.16c0,3.52-2.84,6.36-6.36,6.36"/>
  <path class="cls-2" d="M127.03,15.54l-2.01,6.08h4.05l-2.03-6.08Zm5.47,14c-.43,0-.87-.23-1.05-.78l-1.62-4.85h-5.56l-1.62,4.85c-.18,.55-.62,.78-1.05,.78-.59,0-1.19-.43-1.19-1.1,0-.14,.02-.27,.07-.41l5.49-16.47c.23-.64,.64-.96,1.08-.96s.87,.32,1.1,.96l5.49,16.47c.05,.14,.07,.27,.07,.41,0,.66-.6,1.1-1.19,1.1"/>
  <path class="cls-2" d="M141.58,29.76c-1.74,0-4.09-.78-5.15-2.33-.16-.23-.23-.46-.23-.66,0-.64,.59-1.17,1.19-1.17s.71,.32,1.05,.66c.8,.85,1.99,1.21,3.13,1.21,2.56,0,4-1.39,4-3,0-4.6-9.26-2.81-9.26-8.96,0-3.2,2.77-4.96,5.49-4.96,1.92,0,4.16,1.03,5.35,2.61,.18,.23,.25,.48,.25,.71,0,.62-.55,1.1-1.17,1.1-.55,0-.78-.32-1.12-.66-.87-.89-2.06-1.46-3.32-1.46-1.9,0-3.2,1.12-3.2,2.68,0,3.98,9.26,2.45,9.26,8.96,0,3.36-3.02,5.28-6.29,5.28"/>
  <path class="cls-2" d="M156.44,29.76c-1.74,0-4.09-.78-5.15-2.33-.16-.23-.23-.46-.23-.66,0-.64,.59-1.17,1.19-1.17s.71,.32,1.05,.66c.8,.85,1.99,1.21,3.13,1.21,2.56,0,4-1.39,4-3,0-4.6-9.26-2.81-9.26-8.96,0-3.2,2.77-4.96,5.49-4.96,1.92,0,4.16,1.03,5.35,2.61,.18,.23,.25,.48,.25,.71,0,.62-.55,1.1-1.17,1.1-.55,0-.78-.32-1.12-.66-.87-.89-2.06-1.46-3.32-1.46-1.9,0-3.2,1.12-3.2,2.68,0,3.98,9.26,2.45,9.26,8.96,0,3.36-3.02,5.28-6.29,5.28"/>
  <path class="cls-2" d="M176.11,29.53h-8.58c-.62,0-1.14-.53-1.14-1.14V11.92c0-.62,.53-1.14,1.14-1.14h8.58c.75,0,1.14,.57,1.14,1.14s-.39,1.14-1.14,1.14h-7.43v5.53h6.75c.75,0,1.14,.57,1.14,1.14s-.39,1.14-1.14,1.14h-6.75v6.36h7.43c.75,0,1.14,.57,1.14,1.14s-.39,1.14-1.14,1.14"/>
  <path class="cls-1" d="M191.42,7.84c-.97,0-1.75-.78-1.75-1.75V1.75c0-.97,.78-1.75,1.75-1.75s1.75,.78,1.75,1.75V6.09c0,.97-.78,1.75-1.75,1.75"/>
  <path class="cls-1" d="M195.36,10.71c-.74,0-1.42-.47-1.66-1.21-.3-.92,.2-1.91,1.12-2.21l4.13-1.34c.92-.3,1.91,.2,2.21,1.12,.3,.92-.2,1.91-1.12,2.21l-4.13,1.34c-.18,.06-.36,.09-.54,.09"/>
  <path class="cls-1" d="M187.47,10.71c-.18,0-.36-.03-.54-.09l-4.12-1.34c-.92-.3-1.42-1.29-1.12-2.21,.3-.92,1.28-1.42,2.2-1.12l4.12,1.34c.92,.3,1.42,1.29,1.12,2.21-.24,.74-.93,1.21-1.66,1.21"/>
  <path class="cls-1" d="M186.42,18.86c-.36,0-.72-.11-1.03-.33-.78-.57-.95-1.66-.39-2.44l2.55-3.51c.57-.78,1.66-.95,2.44-.39,.78,.57,.95,1.66,.39,2.44l-2.55,3.51c-.34,.47-.88,.72-1.42,.72"/>
  <path class="cls-1" d="M196.41,18.86c-.54,0-1.07-.25-1.42-.72l-2.55-3.51c-.57-.78-.39-1.88,.39-2.45,.78-.57,1.88-.39,2.44,.39l2.55,3.51c.57,.78,.39,1.88-.39,2.44-.31,.22-.67,.33-1.03,.33"/>
</svg>